<svg xmlns="http://www.w3.org/2000/svg" width="142" height="142" viewBox="0 0 142 142" version="1.1">
	<path d="M 61.500 7.704 C 58.200 8.562, 55.275 9.578, 55 9.961 C 54.725 10.344, 52.043 11.972, 49.040 13.579 C 40.692 18.045, 32.989 26.209, 28.354 35.505 C 26.158 39.907, 24.101 44.507, 23.782 45.727 C 23.344 47.402, 22.199 48.104, 19.101 48.600 C 16.845 48.961, 15 49.577, 15 49.970 C 15 50.363, 16.560 51.525, 18.467 52.552 C 21.398 54.130, 21.840 54.811, 21.329 56.959 C 20.996 58.357, 20.298 60.043, 19.776 60.706 C 19.255 61.370, 19.067 62.299, 19.359 62.772 C 19.652 63.245, 19.260 65.402, 18.489 67.566 C 17.718 69.730, 17.068 73.878, 17.044 76.785 C 17.003 81.721, 17.129 82.001, 18.950 81.027 C 20.668 80.107, 21.149 80.547, 23.015 84.742 C 24.179 87.359, 25.383 90.737, 25.690 92.250 C 25.998 93.762, 26.567 95, 26.955 95 C 27.343 95, 29.038 96.913, 30.720 99.250 C 32.403 101.588, 35.861 105.547, 38.405 108.050 C 42.669 112.245, 43.091 113.112, 43.821 119.181 C 44.631 125.901, 47.015 131, 49.349 131 C 50.065 131, 51.708 132.125, 53 133.500 C 54.292 134.875, 55.623 136, 55.959 136 C 57.545 136, 59.666 130.009, 59.587 125.751 C 59.539 123.139, 59.595 121.001, 59.711 121.001 C 59.827 121, 63.782 121.900, 68.500 123 C 79.205 125.496, 80.651 125.489, 93.802 122.869 C 104.480 120.742, 110 118.756, 110 117.042 C 110 116.543, 110.829 115.872, 111.843 115.550 C 112.856 115.228, 116.119 113.132, 119.093 110.892 C 122.067 108.651, 125.522 106.416, 126.772 105.926 C 128.160 105.380, 129.274 103.880, 129.636 102.070 C 129.962 100.440, 131.758 97.395, 133.627 95.303 C 140.312 87.820, 143.357 73.527, 139.515 67.663 C 138.555 66.198, 137.212 65, 136.529 65 C 135.707 65, 135.103 62.558, 134.738 57.750 C 134.090 49.215, 131.477 41.814, 126.386 34.090 C 121.087 26.049, 110.318 15.942, 103.927 13.011 C 100.942 11.641, 98.275 10.228, 98 9.869 C 97.725 9.511, 95.056 8.494, 92.068 7.609 C 85.136 5.555, 69.579 5.604, 61.500 7.704 M 66 12.922 C 59.089 14.290, 48.166 21.012, 42.100 27.632 C 36.208 34.062, 31.035 42.369, 32.199 43.532 C 32.550 43.883, 36.586 43.035, 41.169 41.647 C 45.751 40.259, 55.350 37.687, 62.500 35.930 C 69.650 34.174, 75.645 32.614, 75.822 32.464 C 76.148 32.186, 74.750 30.413, 69.710 24.708 C 64.650 18.981, 67.976 14.711, 74.100 19.071 C 75.851 20.318, 79.189 21.452, 81.734 21.664 C 87.431 22.138, 87.991 22.506, 88.041 25.809 L 88.081 28.500 90.991 25.097 L 93.901 21.694 102.664 21.779 L 111.428 21.864 106.757 18.957 C 98.495 13.815, 91.286 11.986, 79.782 12.115 C 74.127 12.178, 67.925 12.542, 66 12.922 M 109.174 26.055 C 107.558 28.101, 105.964 29, 103.952 29 C 99.400 29, 89.908 33.698, 85.250 38.257 C 82.912 40.545, 81 42.700, 81 43.048 C 81 43.395, 82.102 44.181, 83.449 44.795 C 85.502 45.730, 85.872 46.557, 85.738 49.911 C 85.650 52.112, 85.844 54.177, 86.168 54.501 C 86.492 54.825, 88.809 54.573, 91.316 53.942 C 95.041 53.004, 96.071 52.236, 96.938 49.748 C 97.522 48.072, 98 45.598, 98 44.250 C 98 41.958, 97.707 41.822, 93.500 42.157 C 91.025 42.353, 89 42.226, 89 41.874 C 89 40.900, 93.023 40.029, 97.595 40.014 C 104.215 39.992, 106.120 43.313, 103.460 50.243 C 103.015 51.403, 103.915 51.589, 108.235 51.230 C 111.830 50.932, 114.849 51.333, 117.530 52.462 C 121.457 54.118, 121.477 54.154, 119.429 55.834 C 118.289 56.767, 113.440 58.806, 108.653 60.364 C 100.451 63.033, 99.806 63.103, 97.474 61.575 C 96.113 60.683, 95 59.289, 95 58.477 C 95 57.393, 93.802 57, 90.500 57 C 86.213 57, 86 57.135, 86 59.868 C 86 62.463, 86.385 62.788, 90.039 63.278 C 97.983 64.344, 98.951 67.900, 93.500 76 C 91.575 78.861, 90 81.381, 90 81.600 C 90 81.820, 91.575 82, 93.500 82 C 95.425 82, 97 82.372, 97 82.826 C 97 84.447, 92.390 87.841, 85.500 91.290 C 81.650 93.217, 76.751 96.190, 74.612 97.897 C 72.474 99.604, 70.154 101, 69.456 101 C 67.579 101, 68.886 104.868, 71.177 106.095 C 72.236 106.662, 75.848 106.907, 79.203 106.639 C 86.625 106.046, 88.985 104.048, 92.265 95.580 C 93.520 92.340, 95.221 89.263, 96.044 88.744 C 97.895 87.576, 105.264 89.406, 107.429 91.571 C 108.948 93.091, 111.148 99.736, 111.378 103.500 C 111.565 106.557, 113.503 105.901, 116.897 101.630 C 120.355 97.278, 122.224 91.742, 121.376 88.361 C 120.711 85.713, 124.559 81.263, 127.080 81.766 C 128.171 81.984, 129.033 80.833, 129.870 78.041 C 130.536 75.818, 131.477 74, 131.963 74 C 132.448 74, 133.374 72.397, 134.021 70.437 C 135.008 67.445, 134.941 66.592, 133.598 65.109 C 132.689 64.103, 132 61.600, 132 59.299 C 132 49.509, 123.070 31.133, 115.368 25.075 C 112.065 22.477, 111.991 22.489, 109.174 26.055 M 75 37.505 C 65.788 40.219, 43.264 46.996, 36.370 49.127 L 29.240 51.331 27.941 56.746 C 26.836 61.354, 26.855 62.296, 28.071 63.065 C 29.259 63.817, 29.266 63.972, 28.112 63.985 C 26.311 64.005, 27.384 74.411, 29.525 77.678 C 30.324 78.897, 30.705 80.706, 30.371 81.698 C 29.426 84.510, 41.918 71.111, 45.643 65.316 C 48.230 61.294, 48.843 59.464, 48.380 57.148 C 47.858 54.540, 48.183 53.957, 50.959 52.521 C 52.706 51.618, 55.117 51.019, 56.318 51.190 C 58.108 51.445, 58.455 52.079, 58.251 54.716 C 57.979 58.230, 59.146 59.258, 64.781 60.468 C 68.356 61.236, 76.586 58.503, 77.451 56.261 C 77.714 55.580, 76.820 52.814, 75.464 50.116 C 72.310 43.836, 72.240 40.408, 75.250 39.652 C 77.670 39.044, 82.158 36.026, 80.500 36.121 C 79.950 36.153, 77.475 36.776, 75 37.505 M 101.500 56 C 101.840 56.550, 102.965 57, 104 57 C 105.035 57, 106.160 56.550, 106.500 56 C 106.862 55.415, 105.824 55, 104 55 C 102.176 55, 101.138 55.415, 101.500 56 M 73.441 61.523 C 71.589 62.975, 71.635 63.033, 74.423 62.773 C 76.030 62.623, 77.530 61.938, 77.756 61.250 C 78.324 59.522, 75.787 59.682, 73.441 61.523 M 54.857 62.750 C 54.059 63.712, 52.076 66.503, 50.452 68.952 C 48.829 71.400, 44.273 77.229, 40.329 81.904 C 32.185 91.560, 32.196 91.283, 39.593 99.867 L 43.355 104.233 45.451 94.867 C 47.760 84.544, 51.985 76.152, 58.355 69.235 C 62.172 65.090, 62.232 64.914, 60.486 62.985 C 58.273 60.539, 56.746 60.475, 54.857 62.750 M 61.793 69.750 C 53.231 78.872, 50.053 89.786, 51.989 103.421 C 52.659 108.139, 53.523 112, 53.910 112 C 54.297 112, 54.641 107.162, 54.675 101.250 C 54.730 91.663, 55.026 89.923, 57.410 85.168 C 58.880 82.236, 62.352 77.748, 65.124 75.194 L 70.164 70.551 67.971 68.776 C 65.114 66.462, 64.839 66.505, 61.793 69.750 M 68.995 76.623 C 63.012 82.029, 59.282 90.677, 58.526 100.895 C 58.184 105.512, 58.187 110.575, 58.532 112.145 C 59.072 114.606, 59.631 115, 62.579 115 C 66.203 115, 66.680 114.140, 64.900 110.813 C 63.262 107.753, 63.569 102.133, 65.490 100.011 C 66.468 98.931, 66.930 97.355, 66.587 96.273 C 66.147 94.888, 67.937 92.383, 73.497 86.602 C 77.623 82.312, 81 78.385, 81 77.876 C 81 77.367, 79.919 76.539, 78.597 76.037 C 77.276 75.534, 75.899 74.646, 75.538 74.062 C 74.463 72.322, 73.216 72.810, 68.995 76.623 M 15.564 100.293 C 15.940 101.279, 16.499 101.834, 16.807 101.526 C 17.115 101.219, 16.808 100.412, 16.124 99.733 C 15.136 98.753, 15.022 98.868, 15.564 100.293 M 95.531 103.345 C 90.985 113.015, 90.146 115.842, 91.650 116.419 C 93.518 117.136, 101.010 114.098, 100.965 112.641 C 100.946 112.014, 100.155 108.730, 99.207 105.345 L 97.484 99.189 95.531 103.345 M 76.400 114.715 C 76.400 117.972, 76.441 118, 81.200 118 C 83.840 118, 85.996 117.662, 85.992 117.250 C 85.987 116.838, 83.827 115.359, 81.192 113.965 L 76.400 111.430 76.400 114.715" stroke="none" fill="black" fill-rule="evenodd"/>
</svg>